PathFileType	4	(X/Y/Z)	D:\TRACE\v60_Jaco2_6-2-23\BothDRS_Motion1_6-platform.trc
DataRate	CameraRate	NumFrames	NumMarkers	Units	OrigDataRate	OrigDataStartFrame	OrigNumFrames
100.00	100.00	      66	5	mm	100.00	938	      7500
Frame#	Time	Left_Front			Right_Front			Left_Aft			Right_Aft			Post			
		X1	Y1	Z1	X2	Y2	Z2	X3	Y3	Z3	X4	Y4	Z4	X5	Y5	Z5	

938	9.370	-750.48975	-4.36586	-642.33984	819.60260	-2.39905	-647.52930	-658.29523	15.92040	492.55957	783.28821	16.07447	501.85025	35.46231	1288.80200	-989.49945	
939	9.380	-750.42950	-4.63664	-642.33386	819.76160	-2.70337	-647.48895	-658.16833	16.34432	492.50610	783.18829	16.37650	501.69974	35.28407	1288.19934	-990.25183	
940	9.390	-750.31512	-5.02325	-642.35840	819.78796	-3.08278	-647.47552	-658.18195	16.62519	492.34357	783.46021	16.59892	501.71042	35.31620	1287.65381	-990.80444	
941	9.400	-750.39215	-5.45005	-642.46216	819.72437	-3.53405	-647.52612	-658.26685	16.84341	492.20679	783.39661	16.90802	501.60397	35.18287	1287.16174	-992.00250	
942	9.410	-750.45502	-5.88540	-642.66064	819.63538	-3.90349	-647.65619	-658.42896	17.30315	491.83505	783.48499	17.17184	501.46454	35.18745	1286.69312	-992.94910	
943	9.420	-750.49384	-6.30365	-642.80396	819.61865	-4.34299	-647.83423	-658.43671	17.31424	491.87793	783.57367	17.50875	501.44739	35.32567	1286.25720	-993.98425	
944	9.430	-750.49310	-6.61740	-642.85449	819.66638	-4.56015	-647.92450	-658.42743	17.48394	491.83292	782.34143	16.82645	501.06595	35.31878	1285.66577	-995.03094	
945	9.440	-750.49554	-7.18341	-642.54999	819.70789	-4.70629	-647.94202	-658.40887	17.81752	491.90686	783.29883	17.75446	501.77725	35.17473	1285.15503	-995.85626	
946	9.450	-750.46686	-7.38065	-642.48462	819.71368	-4.97122	-647.98102	-658.36163	18.06681	491.91818	783.40442	18.04106	501.67288	35.18107	1284.80530	-997.03741	
947	9.460	-750.41028	-7.51496	-642.83429	819.62622	-5.26475	-648.06158	-658.32483	18.20997	491.91156	783.38434	18.40215	501.55539	35.17632	1284.34888	-997.49817	
948	9.470	-750.48474	-7.97444	-642.96509	819.52802	-5.67037	-648.05298	-658.32019	18.32160	491.81702	783.59253	18.54633	501.40536	35.02213	1283.80920	-997.74548	
949	9.480	-750.69073	-8.28300	-643.06482	819.14819	-6.20181	-648.34027	-658.54974	18.55543	491.72946	783.38953	18.88325	501.34793	35.13290	1282.80237	-998.21606	
950	9.490	-751.04364	-8.64813	-643.19739	819.01093	-6.59771	-648.39453	-658.97589	18.90276	491.72083	783.12531	19.24761	501.27185	34.70573	1282.50378	-998.73480	
951	9.500	-751.35193	-8.82716	-643.21033	818.67084	-7.03527	-648.37018	-659.28180	19.23100	491.65176	782.77826	19.50196	501.33099	34.31660	1282.18738	-999.43604	
952	9.510	-751.58722	-9.10305	-643.39026	818.56061	-7.31923	-648.29840	-659.62848	19.58469	491.40643	782.61810	19.70996	501.27136	33.87513	1281.74744	-1000.09009	
953	9.520	-751.88678	-9.38632	-643.53223	818.51477	-7.47736	-648.22223	-659.93665	19.87361	491.24744	782.47614	19.92388	500.99670	33.72552	1281.13904	-1000.34125	
954	9.530	-751.88617	-9.93864	-643.62469	818.05133	-7.93496	-648.55853	-660.10828	19.92021	491.12448	782.22461	20.24624	500.96063	33.46486	1280.36523	-1001.20563	
955	9.540	-752.14606	-10.58844	-643.61322	817.64221	-8.39985	-648.84204	-660.33362	20.07018	491.01422	782.12115	20.51059	500.98972	33.64650	1279.86731	-1002.39746	
956	9.550	-752.36829	-10.79045	-643.67548	817.49725	-8.66037	-648.79761	-660.54181	20.29588	491.00278	781.82074	20.77428	500.89758	33.32582	1279.35815	-1003.15973	
957	9.560	-752.71729	-11.00700	-643.80719	817.17651	-8.87580	-648.86542	-660.82611	20.71177	491.03592	781.28180	20.96176	500.84033	32.98266	1278.80505	-1004.50073	
958	9.570	-753.01837	-11.22240	-643.77069	816.90002	-9.01193	-648.94189	-660.98578	20.90501	491.02820	780.65588	21.02995	500.59921	32.71566	1278.52893	-1005.65790	
959	9.580	-753.37897	-11.60043	-643.86761	816.79181	-9.32494	-648.88159	-661.18292	20.96588	490.96783	780.39600	21.15836	500.50613	32.26156	1278.14124	-1006.14758	
960	9.590	-753.73877	-12.00436	-643.83057	816.32172	-9.82496	-648.93298	-661.74432	21.13938	490.87335	780.16223	21.44436	500.48096	32.05794	1277.51514	-1006.74786	
961	9.600	-754.19312	-12.27163	-643.91229	815.76929	-10.22829	-649.10767	-662.23700	21.27072	490.73315	779.89606	21.71383	500.33215	31.55075	1276.98096	-1007.48370	
962	9.610	-754.58875	-12.46993	-643.99316	815.18475	-10.46468	-649.09186	-662.64984	21.52604	490.61697	779.62823	21.97803	500.21643	31.08221	1276.58252	-1007.98169	
963	9.620	-755.02307	-12.95521	-643.96600	814.77856	-10.65274	-649.17511	-663.16620	21.84698	490.46616	779.13708	22.16095	500.19659	30.40765	1276.17651	-1008.41431	
964	9.630	-755.49365	-13.35761	-644.02576	814.51202	-10.83739	-649.17065	-663.65741	22.18098	490.35690	778.66937	22.36592	500.10013	30.20375	1275.75623	-1008.65210	
965	9.640	-756.02673	-13.62681	-644.26007	814.17438	-11.07094	-649.19928	-664.02594	22.36630	490.32364	777.98853	22.51249	499.96439	29.72625	1275.09998	-1008.97290	
966	9.650	-756.27350	-13.85637	-644.41510	813.67432	-11.64154	-649.43018	-664.33246	22.46673	490.26743	777.57220	22.75149	499.95331	29.23456	1274.66528	-1009.40588	
967	9.660	-756.50970	-14.41379	-644.62476	813.18500	-12.04047	-649.49646	-664.85498	22.56127	490.22083	777.32092	23.13381	500.03937	28.67199	1274.36487	-1009.83435	
968	9.670	-756.82355	-14.82804	-644.63214	812.71869	-12.29282	-649.46979	-665.39240	22.79868	490.04840	776.55646	23.05544	499.79343	28.35314	1273.94128	-1010.35199	
969	9.680	-757.53418	-15.23551	-644.30115	812.25732	-12.49941	-649.37280	-666.03009	23.21912	489.96506	775.90692	23.15016	499.56393	27.71318	1273.44299	-1011.11615	
970	9.690	-758.37823	-14.92601	-644.23212	811.77264	-12.59458	-649.35822	-666.37354	23.30168	489.96286	774.97003	23.06569	499.31351	27.41570	1272.93127	-1012.26581	
971	9.700	-758.86011	-15.19470	-644.22723	811.09424	-12.99698	-649.60822	-666.67041	23.33959	489.87268	774.81702	23.46093	499.42712	26.75507	1272.66443	-1012.98602	
972	9.710	-759.41626	-15.27828	-644.44196	810.59717	-13.27093	-649.74768	-667.26599	23.41522	489.81619	774.72559	23.85110	499.40826	25.93050	1272.18640	-1014.01672	
973	9.720	-759.82172	-15.15007	-644.65137	810.24896	-13.45597	-649.76740	-668.04938	23.59398	489.79901	774.26556	24.06714	499.31918	25.70919	1271.89429	-1014.41412	
974	9.730	-760.59338	-15.64200	-644.59711	809.75464	-13.81889	-649.84393	-668.51740	23.60970	489.81076	773.42859	24.19856	499.18909	25.08256	1271.30688	-1015.35199	
975	9.740	-760.73688	-16.61558	-644.75757	808.81470	-14.19686	-649.81360	-669.03418	23.95679	489.88605	772.88818	24.29855	499.23410	24.54112	1270.83716	-1015.96570	
976	9.750	-761.21442	-16.94862	-644.85223	808.47107	-14.24342	-649.71301	-669.55066	24.09886	489.72165	772.29077	24.53963	499.34656	24.17096	1270.70471	-1016.41309	
977	9.760	-762.13275	-16.20791	-644.96039	807.84717	-14.53650	-649.80402	-670.35651	24.15378	489.62036	771.88721	24.77130	499.26859	23.44230	1270.57727	-1016.52246	
978	9.770	-762.78333	-16.31830	-644.62860	807.41010	-14.80309	-649.86346	-670.90308	24.33650	489.64996	771.39502	24.91551	499.20532	22.58148	1270.22229	-1016.54590	
979	9.780	-763.52185	-16.48544	-644.56958	806.79272	-15.00272	-650.02301	-671.36011	24.62152	489.53345	770.66736	25.15674	499.20172	22.00643	1269.82605	-1016.64337	
980	9.790	-764.09003	-16.77623	-644.84607	806.01367	-15.29067	-650.11176	-672.02197	24.96069	489.46994	770.17413	25.41033	499.11884	21.27439	1269.58264	-1016.64117	
981	9.800	-764.42639	-17.12185	-645.16339	805.37817	-15.46934	-650.05029	-672.90649	25.00500	489.43649	769.51825	25.49103	499.09537	20.55813	1269.12268	-1016.97021	
982	9.810	-765.31531	-17.63806	-645.15515	804.59814	-15.82616	-650.06042	-673.62213	25.16561	489.46060	768.94202	25.58716	499.13531	20.22469	1268.84668	-1017.18658	
983	9.820	-766.03552	-17.71416	-645.01563	804.16248	-15.95999	-650.03131	-674.28925	25.35037	489.31256	767.99017	25.84849	499.15884	19.15535	1268.48499	-1017.73004	
984	9.830	-766.70612	-17.82154	-644.86066	803.50854	-16.17986	-650.06958	-674.86646	25.55525	489.22519	767.67334	26.06311	499.09634	18.92234	1267.99329	-1018.62964	
985	9.840	-767.39606	-18.05316	-644.82843	802.57251	-16.36654	-650.24780	-675.51276	25.73279	489.25104	767.05200	26.10388	498.85040	18.25559	1267.65771	-1019.34180	
986	9.850	-768.19971	-18.36404	-645.00494	802.00677	-16.50500	-650.28058	-676.13684	25.81564	489.19461	766.17078	26.13013	498.75388	17.82900	1267.48682	-1019.95813	
987	9.860	-768.58594	-18.64223	-645.26611	801.46313	-16.65748	-650.17902	-676.92920	25.81174	489.24323	765.22675	26.32852	498.43988	17.14664	1267.06580	-1020.76953	
988	9.870	-769.46838	-18.77855	-645.22583	800.72900	-16.96839	-650.21930	-677.47986	25.83836	489.26294	764.82703	26.44503	498.78104	16.19225	1266.93469	-1021.21942	
989	9.880	-770.25500	-18.83930	-645.09601	799.88623	-17.05036	-650.09021	-678.09802	25.98015	489.20041	764.10022	26.54110	498.75708	15.03758	1266.70374	-1021.92651	
990	9.890	-770.92743	-19.02145	-645.02014	799.26147	-17.09202	-650.13647	-679.08533	26.29536	489.17258	763.28223	26.67538	498.68469	14.65191	1266.52283	-1021.99164	
991	9.900	-771.73389	-19.01151	-645.11328	798.23029	-17.24930	-650.48273	-679.79492	26.52564	489.11823	762.53345	26.68966	498.65546	14.01241	1266.19141	-1022.45898	
992	9.910	-772.51959	-19.20782	-645.33466	797.62872	-17.35792	-650.38098	-680.73090	26.47920	488.99210	761.64154	26.72550	498.62943	13.49110	1266.05823	-1022.55133	
993	9.920	-773.24933	-19.29935	-645.40881	796.97272	-17.53934	-650.33118	-681.35803	26.45155	489.01285	760.62512	26.79257	498.77264	12.17586	1265.79028	-1022.69025	
994	9.930	-774.19568	-19.50204	-645.33655	795.97784	-17.61321	-650.14801	-682.23126	26.63909	489.11728	760.21735	27.00138	498.72736	11.27192	1265.78162	-1022.43793	
995	9.940	-774.75360	-19.61792	-645.14374	795.19391	-17.71407	-650.27380	-682.82813	26.69649	489.09631	759.67126	27.22373	498.64685	10.82067	1265.65234	-1022.20831	
996	9.950	-775.58417	-19.56282	-645.22162	794.49213	-17.77017	-650.54785	-683.17450	26.31135	489.24915	758.74493	27.24871	498.65945	10.04788	1265.29834	-1022.31732	
997	9.960	-776.44464	-19.56603	-645.32526	793.74805	-17.92933	-650.42102	-684.64319	26.73202	488.74796	757.60571	27.24193	498.71045	9.07615	1265.12842	-1022.54352	
998	9.970	-777.26251	-19.58399	-645.18256	792.69763	-18.14668	-650.40887	-685.29376	26.65243	488.68039	756.94641	27.23573	498.20883	8.18458	1265.15161	-1022.73657	
999	9.980	-778.16589	-19.97178	-645.35895	791.80206	-18.36660	-650.67133	-686.02301	26.65542	488.72284	756.16492	27.26017	498.58917	7.47640	1264.94995	-1022.71130	
1000	9.990	-778.88593	-20.07615	-645.23480	791.21967	-18.29237	-650.57935	-686.97339	26.67034	488.77582	755.42615	27.42645	498.56921	6.66188	1264.84509	-1022.66565	
1001	10.000	-779.53992	-19.87281	-645.45471	790.49408	-18.32665	-650.55054	-688.31836	27.60198	488.34213	754.37592	27.42789	498.55493	5.84775	1264.84326	-1022.87848	
1002	10.010	-780.42517	-19.77098	-645.24658	789.31116	-18.12060	-650.42358	-688.72900	27.18864	488.75064	753.62653	27.33353	498.43326	4.84390	1264.73608	-1023.28796	
1003	10.020	-781.56531	-20.00869	-645.28778	788.57660	-18.24027	-650.34546	-689.51233	27.22396	488.93213	752.76837	27.43729	498.40289	4.10957	1264.41968	-1023.68066	
